<mxfile host="app.diagrams.net" modified="2023-09-12T18:09:58.466Z" agent="Mozilla/5.0 (Windows NT 10.0; Win64; x64) AppleWebKit/537.36 (KHTML, like Gecko) Chrome/116.0.0.0 Safari/537.36" etag="jvQyElV7avk24lZWBYm7" version="21.7.4" type="device">
  <diagram name="Página-1" id="2c9fd60b9dZt7nQSmsoY">
    <mxGraphModel dx="1035" dy="515" grid="1" gridSize="10" guides="1" tooltips="1" connect="1" arrows="1" fold="1" page="1" pageScale="1" pageWidth="827" pageHeight="1169" math="0" shadow="0">
      <root>
        <mxCell id="0" />
        <mxCell id="1" parent="0" />
        <mxCell id="dRk2sI_m7WA44RLF2JR3-16" style="edgeStyle=orthogonalEdgeStyle;rounded=0;orthogonalLoop=1;jettySize=auto;html=1;entryX=0;entryY=0.5;entryDx=0;entryDy=0;" edge="1" parent="1" source="dRk2sI_m7WA44RLF2JR3-1" target="dRk2sI_m7WA44RLF2JR3-2">
          <mxGeometry relative="1" as="geometry" />
        </mxCell>
        <mxCell id="dRk2sI_m7WA44RLF2JR3-17" style="edgeStyle=orthogonalEdgeStyle;rounded=0;orthogonalLoop=1;jettySize=auto;html=1;entryX=0;entryY=0.5;entryDx=0;entryDy=0;" edge="1" parent="1" source="dRk2sI_m7WA44RLF2JR3-1" target="dRk2sI_m7WA44RLF2JR3-3">
          <mxGeometry relative="1" as="geometry" />
        </mxCell>
        <mxCell id="dRk2sI_m7WA44RLF2JR3-19" style="edgeStyle=orthogonalEdgeStyle;rounded=0;orthogonalLoop=1;jettySize=auto;html=1;entryX=0;entryY=0.5;entryDx=0;entryDy=0;" edge="1" parent="1" source="dRk2sI_m7WA44RLF2JR3-1" target="dRk2sI_m7WA44RLF2JR3-5">
          <mxGeometry relative="1" as="geometry" />
        </mxCell>
        <mxCell id="dRk2sI_m7WA44RLF2JR3-20" style="edgeStyle=orthogonalEdgeStyle;rounded=0;orthogonalLoop=1;jettySize=auto;html=1;entryX=0;entryY=0.5;entryDx=0;entryDy=0;" edge="1" parent="1" source="dRk2sI_m7WA44RLF2JR3-1" target="dRk2sI_m7WA44RLF2JR3-8">
          <mxGeometry relative="1" as="geometry" />
        </mxCell>
        <mxCell id="dRk2sI_m7WA44RLF2JR3-21" style="edgeStyle=orthogonalEdgeStyle;rounded=0;orthogonalLoop=1;jettySize=auto;html=1;entryX=0;entryY=0.5;entryDx=0;entryDy=0;" edge="1" parent="1" source="dRk2sI_m7WA44RLF2JR3-1" target="dRk2sI_m7WA44RLF2JR3-6">
          <mxGeometry relative="1" as="geometry" />
        </mxCell>
        <mxCell id="dRk2sI_m7WA44RLF2JR3-23" style="edgeStyle=orthogonalEdgeStyle;rounded=0;orthogonalLoop=1;jettySize=auto;html=1;entryX=0;entryY=0.5;entryDx=0;entryDy=0;" edge="1" parent="1" source="dRk2sI_m7WA44RLF2JR3-1" target="dRk2sI_m7WA44RLF2JR3-7">
          <mxGeometry relative="1" as="geometry" />
        </mxCell>
        <mxCell id="dRk2sI_m7WA44RLF2JR3-31" style="edgeStyle=orthogonalEdgeStyle;rounded=0;orthogonalLoop=1;jettySize=auto;html=1;entryX=0;entryY=0.5;entryDx=0;entryDy=0;" edge="1" parent="1" source="dRk2sI_m7WA44RLF2JR3-1" target="dRk2sI_m7WA44RLF2JR3-4">
          <mxGeometry relative="1" as="geometry" />
        </mxCell>
        <mxCell id="dRk2sI_m7WA44RLF2JR3-32" style="edgeStyle=orthogonalEdgeStyle;rounded=0;orthogonalLoop=1;jettySize=auto;html=1;" edge="1" parent="1" source="dRk2sI_m7WA44RLF2JR3-1" target="dRk2sI_m7WA44RLF2JR3-15">
          <mxGeometry relative="1" as="geometry" />
        </mxCell>
        <mxCell id="dRk2sI_m7WA44RLF2JR3-33" style="edgeStyle=orthogonalEdgeStyle;rounded=0;orthogonalLoop=1;jettySize=auto;html=1;" edge="1" parent="1" source="dRk2sI_m7WA44RLF2JR3-1" target="dRk2sI_m7WA44RLF2JR3-14">
          <mxGeometry relative="1" as="geometry" />
        </mxCell>
        <mxCell id="dRk2sI_m7WA44RLF2JR3-1" value="Bibliotecario" style="shape=umlActor;verticalLabelPosition=bottom;verticalAlign=top;html=1;outlineConnect=0;" vertex="1" parent="1">
          <mxGeometry x="30" y="370" width="50" height="100" as="geometry" />
        </mxCell>
        <mxCell id="dRk2sI_m7WA44RLF2JR3-2" value="Registrar o Leitor" style="ellipse;whiteSpace=wrap;html=1;" vertex="1" parent="1">
          <mxGeometry x="172.5" y="100" width="115" height="60" as="geometry" />
        </mxCell>
        <mxCell id="dRk2sI_m7WA44RLF2JR3-3" value="Empréstimo" style="ellipse;whiteSpace=wrap;html=1;" vertex="1" parent="1">
          <mxGeometry x="172.5" y="170" width="120" height="60" as="geometry" />
        </mxCell>
        <mxCell id="dRk2sI_m7WA44RLF2JR3-4" value="Devolução" style="ellipse;whiteSpace=wrap;html=1;" vertex="1" parent="1">
          <mxGeometry x="172.5" y="240" width="110" height="60" as="geometry" />
        </mxCell>
        <mxCell id="dRk2sI_m7WA44RLF2JR3-5" value="Livros Disponiveis" style="ellipse;whiteSpace=wrap;html=1;" vertex="1" parent="1">
          <mxGeometry x="172.5" y="310" width="115" height="60" as="geometry" />
        </mxCell>
        <mxCell id="dRk2sI_m7WA44RLF2JR3-6" value="Livros registrados" style="ellipse;whiteSpace=wrap;html=1;" vertex="1" parent="1">
          <mxGeometry x="181.25" y="570" width="110" height="60" as="geometry" />
        </mxCell>
        <mxCell id="dRk2sI_m7WA44RLF2JR3-7" value="Históricos" style="ellipse;whiteSpace=wrap;html=1;" vertex="1" parent="1">
          <mxGeometry x="182.5" y="650" width="107.5" height="50" as="geometry" />
        </mxCell>
        <mxCell id="dRk2sI_m7WA44RLF2JR3-8" value="Livros emprestados" style="ellipse;whiteSpace=wrap;html=1;" vertex="1" parent="1">
          <mxGeometry x="182.5" y="490" width="112.5" height="60" as="geometry" />
        </mxCell>
        <mxCell id="dRk2sI_m7WA44RLF2JR3-24" style="edgeStyle=orthogonalEdgeStyle;rounded=0;orthogonalLoop=1;jettySize=auto;html=1;" edge="1" parent="1" source="dRk2sI_m7WA44RLF2JR3-11" target="dRk2sI_m7WA44RLF2JR3-15">
          <mxGeometry relative="1" as="geometry" />
        </mxCell>
        <mxCell id="dRk2sI_m7WA44RLF2JR3-25" style="edgeStyle=orthogonalEdgeStyle;rounded=0;orthogonalLoop=1;jettySize=auto;html=1;" edge="1" parent="1" source="dRk2sI_m7WA44RLF2JR3-11" target="dRk2sI_m7WA44RLF2JR3-14">
          <mxGeometry relative="1" as="geometry" />
        </mxCell>
        <mxCell id="dRk2sI_m7WA44RLF2JR3-11" value="Leitor" style="shape=umlActor;verticalLabelPosition=bottom;verticalAlign=top;html=1;outlineConnect=0;" vertex="1" parent="1">
          <mxGeometry x="720" y="330" width="50" height="110" as="geometry" />
        </mxCell>
        <mxCell id="dRk2sI_m7WA44RLF2JR3-14" value="Devolução" style="ellipse;whiteSpace=wrap;html=1;" vertex="1" parent="1">
          <mxGeometry x="414" y="440" width="120" height="80" as="geometry" />
        </mxCell>
        <mxCell id="dRk2sI_m7WA44RLF2JR3-15" value="Emprestimo&amp;nbsp;" style="ellipse;whiteSpace=wrap;html=1;" vertex="1" parent="1">
          <mxGeometry x="414" y="340" width="120" height="80" as="geometry" />
        </mxCell>
      </root>
    </mxGraphModel>
  </diagram>
</mxfile>
